PathFileType	4	(X/Y/Z)	OpenSim_Sub09_CSBaseline_Accel.trc
DataRate	CameraRate	NumFrames	NumMarkers	Units	OrigDataRate	OrigDataStartFrame	OrigNumFrames
100	100	17	8	m	100	2921	5840
Frame#	Time	torso_imu_offset_imu	pelvis_imu_offset_imu	tibia_r_imu_offset_imu	femur_r_imu_offset_imu	tibia_l_imu_offset_imu	femur_l_imu_offset_imu	toes_r_imu_offset_imu	toes_l_imu_offset_imu
				X1	Y1	Z1	X2	Y2	Z2	X3	Y3	Z3	X4	Y4	Z4	X5	Y5	Z5	X6	Y6	Z6	X7	Y7	Z7	X8		Y8	Z8	

2921	29.20000000	9.57699990	-1.00758368	5.52178115	8.90509730	2.41192815	1.95190056	10.16345783	1.02710043	0.53324738	9.86498893	-0.68041654	-0.17549661	10.09356598	-0.14539914	2.11504625	7.11823880	7.08979006	1.47196379	5.20744861	-1.41396080	8.87399231	15.61432805	-1.97451685	2.39436901
2922	29.21000000	9.48207165	-1.03432795	5.49325448	8.85017821	2.44015584	1.70432687	10.46666510	0.94419621	0.80143323	10.08689608	-0.54621204	-0.02907426	8.93361749	-0.27663469	1.92583182	7.13443618	7.03069806	1.27159700	5.31392183	-1.18301320	8.97769168	16.07181955	-3.41219330	1.96516919
2923	29.22000000	9.58081962	-1.02281555	5.50424308	8.85034448	2.43298581	1.43932758	11.03945693	0.95130385	1.27076685	10.39181565	-0.53134247	0.15728839	8.15648885	-0.58715244	1.73623824	7.02697136	6.88535779	1.36853630	5.27459864	-0.72807165	9.23176690	16.07817139	-4.80491488	1.70848496
2924	29.23000000	9.74876084	-0.99158555	5.56304943	8.92379827	2.42725073	1.16460189	11.45788432	0.73183435	2.00641236	10.59953085	-0.59452244	0.34471114	8.11194868	-1.19345172	1.44835657	6.78934548	6.57058856	1.46380475	5.15896324	-0.70895313	9.25232029	15.03265660	-5.38848248	1.38174230
2925	29.24000000	9.67016107	-0.96126511	5.68683753	8.99481009	2.44950218	0.95990840	11.14345162	0.63621945	2.39925460	10.63258454	-0.75671463	0.58314629	8.11767332	-2.20407830	1.00869870	6.60335235	6.02592056	1.35320573	5.03467600	-0.55544966	9.40793605	13.63087111	-6.18118397	1.24604251
2926	29.25000000	9.61011562	-0.89423778	5.81105042	9.03670848	2.42508902	0.84620020	10.73958144	0.82051222	2.45543423	10.47698828	-0.97272914	0.75974982	7.85400583	-3.24802418	0.36821801	6.35042506	5.63504804	1.21031103	5.31512309	-0.13120991	9.33573894	12.88608957	0.28791549	2.55129091
2927	29.26000000	9.40938455	-0.92743147	5.96320597	9.08348339	2.38764134	0.94540173	10.67648123	1.01912104	2.30217717	10.30998340	-1.24490461	0.85549821	7.67505829	-4.05916596	-0.18128256	6.38437478	5.40042373	1.10538602	5.25367993	-0.24641013	9.38077531	17.36084695	-1.19706639	-0.90783613
2928	29.27000000	9.30590613	-0.93462811	6.02204489	9.14518635	2.19772393	1.15536562	10.77878156	0.89310540	2.12808517	10.13630471	-1.73945652	0.90648249	8.37452877	-3.13930516	-0.30946073	6.48797172	5.15028740	0.58875181	5.20337134	-0.78989715	9.50503561	4.74003215	-0.10802013	3.63811087
2929	29.28000000	9.37505308	-0.93201211	6.17144566	9.23143218	1.71668534	1.52960536	10.64498984	0.31728917	2.28275759	9.98738038	-2.06293393	0.76731779	8.51963323	-2.60657388	0.53885807	7.79653769	5.03306175	0.63932217	5.13852812	-1.15973552	9.43839281	8.63413810	7.13051996	14.06990623
2930	29.29000000	9.60356954	-0.91966371	6.34378949	9.62127669	1.07266518	2.34004103	10.54988876	0.13049244	1.86308926	9.89000159	-2.19718533	0.64609862	8.12821210	-3.26874480	-0.47083773	7.58301607	2.44892659	1.96467163	5.37889198	-1.23057382	9.43651495	7.19778292	5.71465857	18.49177773
2931	29.30000000	10.12629644	-0.85612029	6.69008091	10.39677936	0.13567349	3.46031317	10.76129426	0.44763173	1.60831252	9.93355072	-2.32354701	0.78567907	10.42486660	-1.09623411	0.44675296	10.41314125	1.96660235	2.57139059	5.26855593	-1.76756663	9.76389930	3.58354494	1.36266552	15.16587249
2932	29.31000000	10.61688375	-0.68398865	7.00170608	11.21507167	-0.83177127	4.04490750	11.68337929	0.80616589	2.23837399	10.17917678	-2.13067698	1.01246928	15.96597856	3.65009443	5.08469998	12.42734701	3.16334831	1.51303549	4.98319964	-2.47738361	9.93447897	4.56340741	-4.36686462	11.66734372
2933	29.32000000	10.67255852	-0.29020790	7.33424774	11.69634202	-1.54106421	4.16731984	12.62737325	1.06989694	2.96869391	10.71359546	-1.90395270	1.54403454	19.40498902	6.35026307	8.93925953	14.95893419	4.25135668	0.17941975	4.53394326	-3.25904317	10.43199358	9.46852427	-3.40852994	13.63578979
2934	29.33000000	10.40009382	0.09670099	7.49890769	12.17703655	-1.93981757	4.33309395	13.26762095	1.44982716	3.27665137	11.56176747	-1.46007932	1.93678793	16.16911958	3.24983405	9.93845666	16.10223201	4.20102017	-0.99796511	4.40575792	-3.35618004	10.74380475	21.32865912	2.51647762	18.55658433
2935	29.34000000	10.70273041	0.28945905	7.65092737	12.58630051	-2.22140154	4.66745054	14.05246683	2.30865925	3.40665512	12.34220651	-0.85933931	2.28376272	11.50551032	-1.02308427	8.11373242	15.82815498	4.14616786	-0.84685958	4.46026357	-2.32694472	10.94303137	9.16563741	0.39871975	9.58593745
2936	29.35000000	11.17493923	0.45111667	7.91992617	12.46444876	-2.06504417	4.60040920	15.10899596	2.86138231	3.51329744	12.60880566	-0.24666046	2.38044346	9.66723414	-3.71893095	4.89077025	13.58932556	3.54112661	0.06489093	4.23265332	-1.53679256	11.19927242	7.67276814	4.92401564	11.44723036
2937	29.36000000	10.83847241	0.71674768	7.90833258	12.02063972	-1.30720367	4.16161034	16.09789304	2.87167598	3.86531491	12.42155648	0.42720971	2.34479769	8.65083797	-4.67629743	2.13552619	11.63235839	3.44154791	0.02238147	4.90770329	-2.17229768	11.14450466	6.41141931	0.54884911	12.56200507
